<svg xmlns="http://www.w3.org/2000/svg" width="896" height="344" viewBox="0 0 896 344" role="img" aria-labelledby="title description">
<title id="title">A year of building</title>
<desc id="description">371 contributions from 2025-10-05 to 2026-10-06. Includes anonymized private counts made visible by GitHub profile settings.</desc>
<defs><linearGradient id="surface" x2="1" y2="1"><stop stop-color="#ffffff"/><stop offset="1" stop-color="#f3faf6"/></linearGradient></defs>
<g font-family="-apple-system, BlinkMacSystemFont, Segoe UI, Helvetica, Arial, Hiragino Sans, Noto Sans CJK JP, sans-serif">
<rect x="0.5" y="0.5" width="895" height="343" fill="url(#surface)" rx="20" stroke="#dce8e1"/>
<text x="28" y="35" fill="#597368" font-size="11" font-weight="600" letter-spacing="2">A YEAR OF BUILDING</text>
<text x="28" y="85" fill="#18352b" font-size="40" font-weight="700" letter-spacing="-1.5">371</text>
<text x="112" y="82" fill="#597368" font-size="16">contributions, one day at a time</text>
<text x="868" y="35" fill="#597368" font-size="13" text-anchor="end">@karisora</text>
<path d="M28 106H868" stroke="#dce8e1"/>
<text x="61" y="131" fill="#597368" font-size="10">Oct</text>
<g><title>2025-10-05: 0 contributions</title>
<rect x="61" y="143" width="12" height="12" fill="#eaf1ed" rx="3"/>
</g>
<g><title>2025-10-06: 0 contributions</title>
<rect x="61" y="158" width="12" height="12" fill="#eaf1ed" rx="3"/>
</g>
<g><title>2025-10-07: 0 contributions</title>
<rect x="61" y="173" width="12" height="12" fill="#eaf1ed" rx="3"/>
</g>
<g><title>2025-10-08: 0 contributions</title>
<rect x="61" y="188" width="12" height="12" fill="#eaf1ed" rx="3"/>
</g>
<g><title>2025-10-09: 0 contributions</title>
<rect x="61" y="203" width="12" height="12" fill="#eaf1ed" rx="3"/>
</g>
<g><title>2025-10-10: 0 contributions</title>
<rect x="61" y="218" width="12" height="12" fill="#eaf1ed" rx="3"/>
</g>
<g><title>2025-10-11: 0 contributions</title>
<rect x="61" y="233" width="12" height="12" fill="#eaf1ed" rx="3"/>
</g>
<g><title>2025-10-12: 0 contributions</title>
<rect x="76" y="143" width="12" height="12" fill="#eaf1ed" rx="3"/>
</g>
<g><title>2025-10-13: 0 contributions</title>
<rect x="76" y="158" width="12" height="12" fill="#eaf1ed" rx="3"/>
</g>
<g><title>2025-10-14: 0 contributions</title>
<rect x="76" y="173" width="12" height="12" fill="#eaf1ed" rx="3"/>
</g>
<g><title>2025-10-15: 0 contributions</title>
<rect x="76" y="188" width="12" height="12" fill="#eaf1ed" rx="3"/>
</g>
<g><title>2025-10-16: 0 contributions</title>
<rect x="76" y="203" width="12" height="12" fill="#eaf1ed" rx="3"/>
</g>
<g><title>2025-10-17: 0 contributions</title>
<rect x="76" y="218" width="12" height="12" fill="#eaf1ed" rx="3"/>
</g>
<g><title>2025-10-18: 0 contributions</title>
<rect x="76" y="233" width="12" height="12" fill="#eaf1ed" rx="3"/>
</g>
<g><title>2025-10-19: 0 contributions</title>
<rect x="91" y="143" width="12" height="12" fill="#eaf1ed" rx="3"/>
</g>
<g><title>2025-10-20: 0 contributions</title>
<rect x="91" y="158" width="12" height="12" fill="#eaf1ed" rx="3"/>
</g>
<g><title>2025-10-21: 0 contributions</title>
<rect x="91" y="173" width="12" height="12" fill="#eaf1ed" rx="3"/>
</g>
<g><title>2025-10-22: 0 contributions</title>
<rect x="91" y="188" width="12" height="12" fill="#eaf1ed" rx="3"/>
</g>
<g><title>2025-10-23: 0 contributions</title>
<rect x="91" y="203" width="12" height="12" fill="#eaf1ed" rx="3"/>
</g>
<g><title>2025-10-24: 0 contributions</title>
<rect x="91" y="218" width="12" height="12" fill="#eaf1ed" rx="3"/>
</g>
<g><title>2025-10-25: 0 contributions</title>
<rect x="91" y="233" width="12" height="12" fill="#eaf1ed" rx="3"/>
</g>
<g><title>2025-10-26: 0 contributions</title>
<rect x="106" y="143" width="12" height="12" fill="#eaf1ed" rx="3"/>
</g>
<g><title>2025-10-27: 0 contributions</title>
<rect x="106" y="158" width="12" height="12" fill="#eaf1ed" rx="3"/>
</g>
<g><title>2025-10-28: 0 contributions</title>
<rect x="106" y="173" width="12" height="12" fill="#eaf1ed" rx="3"/>
</g>
<g><title>2025-10-29: 0 contributions</title>
<rect x="106" y="188" width="12" height="12" fill="#eaf1ed" rx="3"/>
</g>
<g><title>2025-10-30: 0 contributions</title>
<rect x="106" y="203" width="12" height="12" fill="#eaf1ed" rx="3"/>
</g>
<g><title>2025-10-31: 0 contributions</title>
<rect x="106" y="218" width="12" height="12" fill="#eaf1ed" rx="3"/>
</g>
<text x="106" y="131" fill="#597368" font-size="10">Nov</text>
<g><title>2025-11-01: 0 contributions</title>
<rect x="106" y="233" width="12" height="12" fill="#eaf1ed" rx="3"/>
</g>
<g><title>2025-11-02: 0 contributions</title>
<rect x="121" y="143" width="12" height="12" fill="#eaf1ed" rx="3"/>
</g>
<g><title>2025-11-03: 0 contributions</title>
<rect x="121" y="158" width="12" height="12" fill="#eaf1ed" rx="3"/>
</g>
<g><title>2025-11-04: 0 contributions</title>
<rect x="121" y="173" width="12" height="12" fill="#eaf1ed" rx="3"/>
</g>
<g><title>2025-11-05: 0 contributions</title>
<rect x="121" y="188" width="12" height="12" fill="#eaf1ed" rx="3"/>
</g>
<g><title>2025-11-06: 0 contributions</title>
<rect x="121" y="203" width="12" height="12" fill="#eaf1ed" rx="3"/>
</g>
<g><title>2025-11-07: 0 contributions</title>
<rect x="121" y="218" width="12" height="12" fill="#eaf1ed" rx="3"/>
</g>
<g><title>2025-11-08: 0 contributions</title>
<rect x="121" y="233" width="12" height="12" fill="#eaf1ed" rx="3"/>
</g>
<g><title>2025-11-09: 0 contributions</title>
<rect x="136" y="143" width="12" height="12" fill="#eaf1ed" rx="3"/>
</g>
<g><title>2025-11-10: 0 contributions</title>
<rect x="136" y="158" width="12" height="12" fill="#eaf1ed" rx="3"/>
</g>
<g><title>2025-11-11: 0 contributions</title>
<rect x="136" y="173" width="12" height="12" fill="#eaf1ed" rx="3"/>
</g>
<g><title>2025-11-12: 0 contributions</title>
<rect x="136" y="188" width="12" height="12" fill="#eaf1ed" rx="3"/>
</g>
<g><title>2025-11-13: 0 contributions</title>
<rect x="136" y="203" width="12" height="12" fill="#eaf1ed" rx="3"/>
</g>
<g><title>2025-11-14: 0 contributions</title>
<rect x="136" y="218" width="12" height="12" fill="#eaf1ed" rx="3"/>
</g>
<g><title>2025-11-15: 0 contributions</title>
<rect x="136" y="233" width="12" height="12" fill="#eaf1ed" rx="3"/>
</g>
<g><title>2025-11-16: 0 contributions</title>
<rect x="151" y="143" width="12" height="12" fill="#eaf1ed" rx="3"/>
</g>
<g><title>2025-11-17: 0 contributions</title>
<rect x="151" y="158" width="12" height="12" fill="#eaf1ed" rx="3"/>
</g>
<g><title>2025-11-18: 0 contributions</title>
<rect x="151" y="173" width="12" height="12" fill="#eaf1ed" rx="3"/>
</g>
<g><title>2025-11-19: 0 contributions</title>
<rect x="151" y="188" width="12" height="12" fill="#eaf1ed" rx="3"/>
</g>
<g><title>2025-11-20: 0 contributions</title>
<rect x="151" y="203" width="12" height="12" fill="#eaf1ed" rx="3"/>
</g>
<g><title>2025-11-21: 0 contributions</title>
<rect x="151" y="218" width="12" height="12" fill="#eaf1ed" rx="3"/>
</g>
<g><title>2025-11-22: 0 contributions</title>
<rect x="151" y="233" width="12" height="12" fill="#eaf1ed" rx="3"/>
</g>
<g><title>2025-11-23: 0 contributions</title>
<rect x="166" y="143" width="12" height="12" fill="#eaf1ed" rx="3"/>
</g>
<g><title>2025-11-24: 0 contributions</title>
<rect x="166" y="158" width="12" height="12" fill="#eaf1ed" rx="3"/>
</g>
<g><title>2025-11-25: 0 contributions</title>
<rect x="166" y="173" width="12" height="12" fill="#eaf1ed" rx="3"/>
</g>
<g><title>2025-11-26: 0 contributions</title>
<rect x="166" y="188" width="12" height="12" fill="#eaf1ed" rx="3"/>
</g>
<g><title>2025-11-27: 0 contributions</title>
<rect x="166" y="203" width="12" height="12" fill="#eaf1ed" rx="3"/>
</g>
<g><title>2025-11-28: 0 contributions</title>
<rect x="166" y="218" width="12" height="12" fill="#eaf1ed" rx="3"/>
</g>
<g><title>2025-11-29: 0 contributions</title>
<rect x="166" y="233" width="12" height="12" fill="#eaf1ed" rx="3"/>
</g>
<g><title>2025-11-30: 0 contributions</title>
<rect x="181" y="143" width="12" height="12" fill="#eaf1ed" rx="3"/>
</g>
<text x="181" y="131" fill="#597368" font-size="10">Dec</text>
<g><title>2025-12-01: 0 contributions</title>
<rect x="181" y="158" width="12" height="12" fill="#eaf1ed" rx="3"/>
</g>
<g><title>2025-12-02: 0 contributions</title>
<rect x="181" y="173" width="12" height="12" fill="#eaf1ed" rx="3"/>
</g>
<g><title>2025-12-03: 0 contributions</title>
<rect x="181" y="188" width="12" height="12" fill="#eaf1ed" rx="3"/>
</g>
<g><title>2025-12-04: 0 contributions</title>
<rect x="181" y="203" width="12" height="12" fill="#eaf1ed" rx="3"/>
</g>
<g><title>2025-12-05: 0 contributions</title>
<rect x="181" y="218" width="12" height="12" fill="#eaf1ed" rx="3"/>
</g>
<g><title>2025-12-06: 0 contributions</title>
<rect x="181" y="233" width="12" height="12" fill="#eaf1ed" rx="3"/>
</g>
<g><title>2025-12-07: 0 contributions</title>
<rect x="196" y="143" width="12" height="12" fill="#eaf1ed" rx="3"/>
</g>
<g><title>2025-12-08: 0 contributions</title>
<rect x="196" y="158" width="12" height="12" fill="#eaf1ed" rx="3"/>
</g>
<g><title>2025-12-09: 0 contributions</title>
<rect x="196" y="173" width="12" height="12" fill="#eaf1ed" rx="3"/>
</g>
<g><title>2025-12-10: 0 contributions</title>
<rect x="196" y="188" width="12" height="12" fill="#eaf1ed" rx="3"/>
</g>
<g><title>2025-12-11: 0 contributions</title>
<rect x="196" y="203" width="12" height="12" fill="#eaf1ed" rx="3"/>
</g>
<g><title>2025-12-12: 0 contributions</title>
<rect x="196" y="218" width="12" height="12" fill="#eaf1ed" rx="3"/>
</g>
<g><title>2025-12-13: 0 contributions</title>
<rect x="196" y="233" width="12" height="12" fill="#eaf1ed" rx="3"/>
</g>
<g><title>2025-12-14: 0 contributions</title>
<rect x="211" y="143" width="12" height="12" fill="#eaf1ed" rx="3"/>
</g>
<g><title>2025-12-15: 0 contributions</title>
<rect x="211" y="158" width="12" height="12" fill="#eaf1ed" rx="3"/>
</g>
<g><title>2025-12-16: 0 contributions</title>
<rect x="211" y="173" width="12" height="12" fill="#eaf1ed" rx="3"/>
</g>
<g><title>2025-12-17: 0 contributions</title>
<rect x="211" y="188" width="12" height="12" fill="#eaf1ed" rx="3"/>
</g>
<g><title>2025-12-18: 0 contributions</title>
<rect x="211" y="203" width="12" height="12" fill="#eaf1ed" rx="3"/>
</g>
<g><title>2025-12-19: 0 contributions</title>
<rect x="211" y="218" width="12" height="12" fill="#eaf1ed" rx="3"/>
</g>
<g><title>2025-12-20: 0 contributions</title>
<rect x="211" y="233" width="12" height="12" fill="#eaf1ed" rx="3"/>
</g>
<g><title>2025-12-21: 0 contributions</title>
<rect x="226" y="143" width="12" height="12" fill="#eaf1ed" rx="3"/>
</g>
<g><title>2025-12-22: 0 contributions</title>
<rect x="226" y="158" width="12" height="12" fill="#eaf1ed" rx="3"/>
</g>
<g><title>2025-12-23: 0 contributions</title>
<rect x="226" y="173" width="12" height="12" fill="#eaf1ed" rx="3"/>
</g>
<g><title>2025-12-24: 0 contributions</title>
<rect x="226" y="188" width="12" height="12" fill="#eaf1ed" rx="3"/>
</g>
<g><title>2025-12-25: 0 contributions</title>
<rect x="226" y="203" width="12" height="12" fill="#eaf1ed" rx="3"/>
</g>
<g><title>2025-12-26: 0 contributions</title>
<rect x="226" y="218" width="12" height="12" fill="#eaf1ed" rx="3"/>
</g>
<g><title>2025-12-27: 0 contributions</title>
<rect x="226" y="233" width="12" height="12" fill="#eaf1ed" rx="3"/>
</g>
<g><title>2025-12-28: 0 contributions</title>
<rect x="241" y="143" width="12" height="12" fill="#eaf1ed" rx="3"/>
</g>
<g><title>2025-12-29: 0 contributions</title>
<rect x="241" y="158" width="12" height="12" fill="#eaf1ed" rx="3"/>
</g>
<g><title>2025-12-30: 0 contributions</title>
<rect x="241" y="173" width="12" height="12" fill="#eaf1ed" rx="3"/>
</g>
<g><title>2025-12-31: 0 contributions</title>
<rect x="241" y="188" width="12" height="12" fill="#eaf1ed" rx="3"/>
</g>
<text x="241" y="131" fill="#597368" font-size="10">Jan</text>
<g><title>2026-01-01: 0 contributions</title>
<rect x="241" y="203" width="12" height="12" fill="#eaf1ed" rx="3"/>
</g>
<g><title>2026-01-02: 0 contributions</title>
<rect x="241" y="218" width="12" height="12" fill="#eaf1ed" rx="3"/>
</g>
<g><title>2026-01-03: 0 contributions</title>
<rect x="241" y="233" width="12" height="12" fill="#eaf1ed" rx="3"/>
</g>
<g><title>2026-01-04: 0 contributions</title>
<rect x="256" y="143" width="12" height="12" fill="#eaf1ed" rx="3"/>
</g>
<g><title>2026-01-05: 0 contributions</title>
<rect x="256" y="158" width="12" height="12" fill="#eaf1ed" rx="3"/>
</g>
<g><title>2026-01-06: 0 contributions</title>
<rect x="256" y="173" width="12" height="12" fill="#eaf1ed" rx="3"/>
</g>
<g><title>2026-01-07: 0 contributions</title>
<rect x="256" y="188" width="12" height="12" fill="#eaf1ed" rx="3"/>
</g>
<g><title>2026-01-08: 0 contributions</title>
<rect x="256" y="203" width="12" height="12" fill="#eaf1ed" rx="3"/>
</g>
<g><title>2026-01-09: 0 contributions</title>
<rect x="256" y="218" width="12" height="12" fill="#eaf1ed" rx="3"/>
</g>
<g><title>2026-01-10: 0 contributions</title>
<rect x="256" y="233" width="12" height="12" fill="#eaf1ed" rx="3"/>
</g>
<g><title>2026-01-11: 0 contributions</title>
<rect x="271" y="143" width="12" height="12" fill="#eaf1ed" rx="3"/>
</g>
<g><title>2026-01-12: 0 contributions</title>
<rect x="271" y="158" width="12" height="12" fill="#eaf1ed" rx="3"/>
</g>
<g><title>2026-01-13: 0 contributions</title>
<rect x="271" y="173" width="12" height="12" fill="#eaf1ed" rx="3"/>
</g>
<g><title>2026-01-14: 0 contributions</title>
<rect x="271" y="188" width="12" height="12" fill="#eaf1ed" rx="3"/>
</g>
<g><title>2026-01-15: 0 contributions</title>
<rect x="271" y="203" width="12" height="12" fill="#eaf1ed" rx="3"/>
</g>
<g><title>2026-01-16: 0 contributions</title>
<rect x="271" y="218" width="12" height="12" fill="#eaf1ed" rx="3"/>
</g>
<g><title>2026-01-17: 0 contributions</title>
<rect x="271" y="233" width="12" height="12" fill="#eaf1ed" rx="3"/>
</g>
<g><title>2026-01-18: 0 contributions</title>
<rect x="286" y="143" width="12" height="12" fill="#eaf1ed" rx="3"/>
</g>
<g><title>2026-01-19: 0 contributions</title>
<rect x="286" y="158" width="12" height="12" fill="#eaf1ed" rx="3"/>
</g>
<g><title>2026-01-20: 0 contributions</title>
<rect x="286" y="173" width="12" height="12" fill="#eaf1ed" rx="3"/>
</g>
<g><title>2026-01-21: 0 contributions</title>
<rect x="286" y="188" width="12" height="12" fill="#eaf1ed" rx="3"/>
</g>
<g><title>2026-01-22: 0 contributions</title>
<rect x="286" y="203" width="12" height="12" fill="#eaf1ed" rx="3"/>
</g>
<g><title>2026-01-23: 0 contributions</title>
<rect x="286" y="218" width="12" height="12" fill="#eaf1ed" rx="3"/>
</g>
<g><title>2026-01-24: 0 contributions</title>
<rect x="286" y="233" width="12" height="12" fill="#eaf1ed" rx="3"/>
</g>
<g><title>2026-01-25: 0 contributions</title>
<rect x="301" y="143" width="12" height="12" fill="#eaf1ed" rx="3"/>
</g>
<g><title>2026-01-26: 0 contributions</title>
<rect x="301" y="158" width="12" height="12" fill="#eaf1ed" rx="3"/>
</g>
<g><title>2026-01-27: 0 contributions</title>
<rect x="301" y="173" width="12" height="12" fill="#eaf1ed" rx="3"/>
</g>
<g><title>2026-01-28: 0 contributions</title>
<rect x="301" y="188" width="12" height="12" fill="#eaf1ed" rx="3"/>
</g>
<g><title>2026-01-29: 0 contributions</title>
<rect x="301" y="203" width="12" height="12" fill="#eaf1ed" rx="3"/>
</g>
<g><title>2026-01-30: 0 contributions</title>
<rect x="301" y="218" width="12" height="12" fill="#eaf1ed" rx="3"/>
</g>
<g><title>2026-01-31: 0 contributions</title>
<rect x="301" y="233" width="12" height="12" fill="#eaf1ed" rx="3"/>
</g>
<text x="316" y="131" fill="#597368" font-size="10">Feb</text>
<g><title>2026-02-01: 0 contributions</title>
<rect x="316" y="143" width="12" height="12" fill="#eaf1ed" rx="3"/>
</g>
<g><title>2026-02-02: 0 contributions</title>
<rect x="316" y="158" width="12" height="12" fill="#eaf1ed" rx="3"/>
</g>
<g><title>2026-02-03: 0 contributions</title>
<rect x="316" y="173" width="12" height="12" fill="#eaf1ed" rx="3"/>
</g>
<g><title>2026-02-04: 0 contributions</title>
<rect x="316" y="188" width="12" height="12" fill="#eaf1ed" rx="3"/>
</g>
<g><title>2026-02-05: 0 contributions</title>
<rect x="316" y="203" width="12" height="12" fill="#eaf1ed" rx="3"/>
</g>
<g><title>2026-02-06: 0 contributions</title>
<rect x="316" y="218" width="12" height="12" fill="#eaf1ed" rx="3"/>
</g>
<g><title>2026-02-07: 0 contributions</title>
<rect x="316" y="233" width="12" height="12" fill="#eaf1ed" rx="3"/>
</g>
<g><title>2026-02-08: 0 contributions</title>
<rect x="331" y="143" width="12" height="12" fill="#eaf1ed" rx="3"/>
</g>
<g><title>2026-02-09: 0 contributions</title>
<rect x="331" y="158" width="12" height="12" fill="#eaf1ed" rx="3"/>
</g>
<g><title>2026-02-10: 0 contributions</title>
<rect x="331" y="173" width="12" height="12" fill="#eaf1ed" rx="3"/>
</g>
<g><title>2026-02-11: 0 contributions</title>
<rect x="331" y="188" width="12" height="12" fill="#eaf1ed" rx="3"/>
</g>
<g><title>2026-02-12: 0 contributions</title>
<rect x="331" y="203" width="12" height="12" fill="#eaf1ed" rx="3"/>
</g>
<g><title>2026-02-13: 0 contributions</title>
<rect x="331" y="218" width="12" height="12" fill="#eaf1ed" rx="3"/>
</g>
<g><title>2026-02-14: 0 contributions</title>
<rect x="331" y="233" width="12" height="12" fill="#eaf1ed" rx="3"/>
</g>
<g><title>2026-02-15: 0 contributions</title>
<rect x="346" y="143" width="12" height="12" fill="#eaf1ed" rx="3"/>
</g>
<g><title>2026-02-16: 0 contributions</title>
<rect x="346" y="158" width="12" height="12" fill="#eaf1ed" rx="3"/>
</g>
<g><title>2026-02-17: 0 contributions</title>
<rect x="346" y="173" width="12" height="12" fill="#eaf1ed" rx="3"/>
</g>
<g><title>2026-02-18: 0 contributions</title>
<rect x="346" y="188" width="12" height="12" fill="#eaf1ed" rx="3"/>
</g>
<g><title>2026-02-19: 0 contributions</title>
<rect x="346" y="203" width="12" height="12" fill="#eaf1ed" rx="3"/>
</g>
<g><title>2026-02-20: 0 contributions</title>
<rect x="346" y="218" width="12" height="12" fill="#eaf1ed" rx="3"/>
</g>
<g><title>2026-02-21: 0 contributions</title>
<rect x="346" y="233" width="12" height="12" fill="#eaf1ed" rx="3"/>
</g>
<g><title>2026-02-22: 0 contributions</title>
<rect x="361" y="143" width="12" height="12" fill="#eaf1ed" rx="3"/>
</g>
<g><title>2026-02-23: 0 contributions</title>
<rect x="361" y="158" width="12" height="12" fill="#eaf1ed" rx="3"/>
</g>
<g><title>2026-02-24: 0 contributions</title>
<rect x="361" y="173" width="12" height="12" fill="#eaf1ed" rx="3"/>
</g>
<g><title>2026-02-25: 1 contributions</title>
<rect x="361" y="188" width="12" height="12" fill="#a8dfbb" rx="3"/>
</g>
<g><title>2026-02-26: 0 contributions</title>
<rect x="361" y="203" width="12" height="12" fill="#eaf1ed" rx="3"/>
</g>
<g><title>2026-02-27: 0 contributions</title>
<rect x="361" y="218" width="12" height="12" fill="#eaf1ed" rx="3"/>
</g>
<g><title>2026-02-28: 0 contributions</title>
<rect x="361" y="233" width="12" height="12" fill="#eaf1ed" rx="3"/>
</g>
<text x="376" y="131" fill="#597368" font-size="10">Mar</text>
<g><title>2026-03-01: 0 contributions</title>
<rect x="376" y="143" width="12" height="12" fill="#eaf1ed" rx="3"/>
</g>
<g><title>2026-03-02: 3 contributions</title>
<rect x="376" y="158" width="12" height="12" fill="#a8dfbb" rx="3"/>
</g>
<g><title>2026-03-03: 0 contributions</title>
<rect x="376" y="173" width="12" height="12" fill="#eaf1ed" rx="3"/>
</g>
<g><title>2026-03-04: 0 contributions</title>
<rect x="376" y="188" width="12" height="12" fill="#eaf1ed" rx="3"/>
</g>
<g><title>2026-03-05: 0 contributions</title>
<rect x="376" y="203" width="12" height="12" fill="#eaf1ed" rx="3"/>
</g>
<g><title>2026-03-06: 4 contributions</title>
<rect x="376" y="218" width="12" height="12" fill="#60c88b" rx="3"/>
</g>
<g><title>2026-03-07: 0 contributions</title>
<rect x="376" y="233" width="12" height="12" fill="#eaf1ed" rx="3"/>
</g>
<g><title>2026-03-08: 1 contributions</title>
<rect x="391" y="143" width="12" height="12" fill="#a8dfbb" rx="3"/>
</g>
<g><title>2026-03-09: 0 contributions</title>
<rect x="391" y="158" width="12" height="12" fill="#eaf1ed" rx="3"/>
</g>
<g><title>2026-03-10: 0 contributions</title>
<rect x="391" y="173" width="12" height="12" fill="#eaf1ed" rx="3"/>
</g>
<g><title>2026-03-11: 0 contributions</title>
<rect x="391" y="188" width="12" height="12" fill="#eaf1ed" rx="3"/>
</g>
<g><title>2026-03-12: 0 contributions</title>
<rect x="391" y="203" width="12" height="12" fill="#eaf1ed" rx="3"/>
</g>
<g><title>2026-03-13: 2 contributions</title>
<rect x="391" y="218" width="12" height="12" fill="#a8dfbb" rx="3"/>
</g>
<g><title>2026-03-14: 0 contributions</title>
<rect x="391" y="233" width="12" height="12" fill="#eaf1ed" rx="3"/>
</g>
<g><title>2026-03-15: 0 contributions</title>
<rect x="406" y="143" width="12" height="12" fill="#eaf1ed" rx="3"/>
</g>
<g><title>2026-03-16: 0 contributions</title>
<rect x="406" y="158" width="12" height="12" fill="#eaf1ed" rx="3"/>
</g>
<g><title>2026-03-17: 0 contributions</title>
<rect x="406" y="173" width="12" height="12" fill="#eaf1ed" rx="3"/>
</g>
<g><title>2026-03-18: 0 contributions</title>
<rect x="406" y="188" width="12" height="12" fill="#eaf1ed" rx="3"/>
</g>
<g><title>2026-03-19: 0 contributions</title>
<rect x="406" y="203" width="12" height="12" fill="#eaf1ed" rx="3"/>
</g>
<g><title>2026-03-20: 0 contributions</title>
<rect x="406" y="218" width="12" height="12" fill="#eaf1ed" rx="3"/>
</g>
<g><title>2026-03-21: 0 contributions</title>
<rect x="406" y="233" width="12" height="12" fill="#eaf1ed" rx="3"/>
</g>
<g><title>2026-03-22: 0 contributions</title>
<rect x="421" y="143" width="12" height="12" fill="#eaf1ed" rx="3"/>
</g>
<g><title>2026-03-23: 9 contributions</title>
<rect x="421" y="158" width="12" height="12" fill="#2aa865" rx="3"/>
</g>
<g><title>2026-03-24: 0 contributions</title>
<rect x="421" y="173" width="12" height="12" fill="#eaf1ed" rx="3"/>
</g>
<g><title>2026-03-25: 0 contributions</title>
<rect x="421" y="188" width="12" height="12" fill="#eaf1ed" rx="3"/>
</g>
<g><title>2026-03-26: 0 contributions</title>
<rect x="421" y="203" width="12" height="12" fill="#eaf1ed" rx="3"/>
</g>
<g><title>2026-03-27: 1 contributions</title>
<rect x="421" y="218" width="12" height="12" fill="#a8dfbb" rx="3"/>
</g>
<g><title>2026-03-28: 0 contributions</title>
<rect x="421" y="233" width="12" height="12" fill="#eaf1ed" rx="3"/>
</g>
<g><title>2026-03-29: 0 contributions</title>
<rect x="436" y="143" width="12" height="12" fill="#eaf1ed" rx="3"/>
</g>
<g><title>2026-03-30: 0 contributions</title>
<rect x="436" y="158" width="12" height="12" fill="#eaf1ed" rx="3"/>
</g>
<g><title>2026-03-31: 1 contributions</title>
<rect x="436" y="173" width="12" height="12" fill="#a8dfbb" rx="3"/>
</g>
<text x="436" y="131" fill="#597368" font-size="10">Apr</text>
<g><title>2026-04-01: 0 contributions</title>
<rect x="436" y="188" width="12" height="12" fill="#eaf1ed" rx="3"/>
</g>
<g><title>2026-04-02: 1 contributions</title>
<rect x="436" y="203" width="12" height="12" fill="#a8dfbb" rx="3"/>
</g>
<g><title>2026-04-03: 0 contributions</title>
<rect x="436" y="218" width="12" height="12" fill="#eaf1ed" rx="3"/>
</g>
<g><title>2026-04-04: 0 contributions</title>
<rect x="436" y="233" width="12" height="12" fill="#eaf1ed" rx="3"/>
</g>
<g><title>2026-04-05: 4 contributions</title>
<rect x="451" y="143" width="12" height="12" fill="#60c88b" rx="3"/>
</g>
<g><title>2026-04-06: 0 contributions</title>
<rect x="451" y="158" width="12" height="12" fill="#eaf1ed" rx="3"/>
</g>
<g><title>2026-04-07: 0 contributions</title>
<rect x="451" y="173" width="12" height="12" fill="#eaf1ed" rx="3"/>
</g>
<g><title>2026-04-08: 1 contributions</title>
<rect x="451" y="188" width="12" height="12" fill="#a8dfbb" rx="3"/>
</g>
<g><title>2026-04-09: 0 contributions</title>
<rect x="451" y="203" width="12" height="12" fill="#eaf1ed" rx="3"/>
</g>
<g><title>2026-04-10: 8 contributions</title>
<rect x="451" y="218" width="12" height="12" fill="#2aa865" rx="3"/>
</g>
<g><title>2026-04-11: 4 contributions</title>
<rect x="451" y="233" width="12" height="12" fill="#60c88b" rx="3"/>
</g>
<g><title>2026-04-12: 0 contributions</title>
<rect x="466" y="143" width="12" height="12" fill="#eaf1ed" rx="3"/>
</g>
<g><title>2026-04-13: 1 contributions</title>
<rect x="466" y="158" width="12" height="12" fill="#a8dfbb" rx="3"/>
</g>
<g><title>2026-04-14: 1 contributions</title>
<rect x="466" y="173" width="12" height="12" fill="#a8dfbb" rx="3"/>
</g>
<g><title>2026-04-15: 12 contributions</title>
<rect x="466" y="188" width="12" height="12" fill="#157747" rx="3"/>
</g>
<g><title>2026-04-16: 0 contributions</title>
<rect x="466" y="203" width="12" height="12" fill="#eaf1ed" rx="3"/>
</g>
<g><title>2026-04-17: 0 contributions</title>
<rect x="466" y="218" width="12" height="12" fill="#eaf1ed" rx="3"/>
</g>
<g><title>2026-04-18: 8 contributions</title>
<rect x="466" y="233" width="12" height="12" fill="#2aa865" rx="3"/>
</g>
<g><title>2026-04-19: 0 contributions</title>
<rect x="481" y="143" width="12" height="12" fill="#eaf1ed" rx="3"/>
</g>
<g><title>2026-04-20: 0 contributions</title>
<rect x="481" y="158" width="12" height="12" fill="#eaf1ed" rx="3"/>
</g>
<g><title>2026-04-21: 0 contributions</title>
<rect x="481" y="173" width="12" height="12" fill="#eaf1ed" rx="3"/>
</g>
<g><title>2026-04-22: 0 contributions</title>
<rect x="481" y="188" width="12" height="12" fill="#eaf1ed" rx="3"/>
</g>
<g><title>2026-04-23: 0 contributions</title>
<rect x="481" y="203" width="12" height="12" fill="#eaf1ed" rx="3"/>
</g>
<g><title>2026-04-24: 0 contributions</title>
<rect x="481" y="218" width="12" height="12" fill="#eaf1ed" rx="3"/>
</g>
<g><title>2026-04-25: 0 contributions</title>
<rect x="481" y="233" width="12" height="12" fill="#eaf1ed" rx="3"/>
</g>
<g><title>2026-04-26: 12 contributions</title>
<rect x="496" y="143" width="12" height="12" fill="#157747" rx="3"/>
</g>
<g><title>2026-04-27: 0 contributions</title>
<rect x="496" y="158" width="12" height="12" fill="#eaf1ed" rx="3"/>
</g>
<g><title>2026-04-28: 6 contributions</title>
<rect x="496" y="173" width="12" height="12" fill="#60c88b" rx="3"/>
</g>
<g><title>2026-04-29: 0 contributions</title>
<rect x="496" y="188" width="12" height="12" fill="#eaf1ed" rx="3"/>
</g>
<g><title>2026-04-30: 3 contributions</title>
<rect x="496" y="203" width="12" height="12" fill="#a8dfbb" rx="3"/>
</g>
<text x="496" y="131" fill="#597368" font-size="10">May</text>
<g><title>2026-05-01: 8 contributions</title>
<rect x="496" y="218" width="12" height="12" fill="#2aa865" rx="3"/>
</g>
<g><title>2026-05-02: 0 contributions</title>
<rect x="496" y="233" width="12" height="12" fill="#eaf1ed" rx="3"/>
</g>
<g><title>2026-05-03: 12 contributions</title>
<rect x="511" y="143" width="12" height="12" fill="#157747" rx="3"/>
</g>
<g><title>2026-05-04: 6 contributions</title>
<rect x="511" y="158" width="12" height="12" fill="#60c88b" rx="3"/>
</g>
<g><title>2026-05-05: 15 contributions</title>
<rect x="511" y="173" width="12" height="12" fill="#157747" rx="3"/>
</g>
<g><title>2026-05-06: 1 contributions</title>
<rect x="511" y="188" width="12" height="12" fill="#a8dfbb" rx="3"/>
</g>
<g><title>2026-05-07: 0 contributions</title>
<rect x="511" y="203" width="12" height="12" fill="#eaf1ed" rx="3"/>
</g>
<g><title>2026-05-08: 0 contributions</title>
<rect x="511" y="218" width="12" height="12" fill="#eaf1ed" rx="3"/>
</g>
<g><title>2026-05-09: 0 contributions</title>
<rect x="511" y="233" width="12" height="12" fill="#eaf1ed" rx="3"/>
</g>
<g><title>2026-05-10: 0 contributions</title>
<rect x="526" y="143" width="12" height="12" fill="#eaf1ed" rx="3"/>
</g>
<g><title>2026-05-11: 0 contributions</title>
<rect x="526" y="158" width="12" height="12" fill="#eaf1ed" rx="3"/>
</g>
<g><title>2026-05-12: 0 contributions</title>
<rect x="526" y="173" width="12" height="12" fill="#eaf1ed" rx="3"/>
</g>
<g><title>2026-05-13: 8 contributions</title>
<rect x="526" y="188" width="12" height="12" fill="#2aa865" rx="3"/>
</g>
<g><title>2026-05-14: 0 contributions</title>
<rect x="526" y="203" width="12" height="12" fill="#eaf1ed" rx="3"/>
</g>
<g><title>2026-05-15: 1 contributions</title>
<rect x="526" y="218" width="12" height="12" fill="#a8dfbb" rx="3"/>
</g>
<g><title>2026-05-16: 3 contributions</title>
<rect x="526" y="233" width="12" height="12" fill="#a8dfbb" rx="3"/>
</g>
<g><title>2026-05-17: 0 contributions</title>
<rect x="541" y="143" width="12" height="12" fill="#eaf1ed" rx="3"/>
</g>
<g><title>2026-05-18: 0 contributions</title>
<rect x="541" y="158" width="12" height="12" fill="#eaf1ed" rx="3"/>
</g>
<g><title>2026-05-19: 0 contributions</title>
<rect x="541" y="173" width="12" height="12" fill="#eaf1ed" rx="3"/>
</g>
<g><title>2026-05-20: 0 contributions</title>
<rect x="541" y="188" width="12" height="12" fill="#eaf1ed" rx="3"/>
</g>
<g><title>2026-05-21: 0 contributions</title>
<rect x="541" y="203" width="12" height="12" fill="#eaf1ed" rx="3"/>
</g>
<g><title>2026-05-22: 2 contributions</title>
<rect x="541" y="218" width="12" height="12" fill="#a8dfbb" rx="3"/>
</g>
<g><title>2026-05-23: 0 contributions</title>
<rect x="541" y="233" width="12" height="12" fill="#eaf1ed" rx="3"/>
</g>
<g><title>2026-05-24: 2 contributions</title>
<rect x="556" y="143" width="12" height="12" fill="#a8dfbb" rx="3"/>
</g>
<g><title>2026-05-25: 0 contributions</title>
<rect x="556" y="158" width="12" height="12" fill="#eaf1ed" rx="3"/>
</g>
<g><title>2026-05-26: 0 contributions</title>
<rect x="556" y="173" width="12" height="12" fill="#eaf1ed" rx="3"/>
</g>
<g><title>2026-05-27: 0 contributions</title>
<rect x="556" y="188" width="12" height="12" fill="#eaf1ed" rx="3"/>
</g>
<g><title>2026-05-28: 0 contributions</title>
<rect x="556" y="203" width="12" height="12" fill="#eaf1ed" rx="3"/>
</g>
<g><title>2026-05-29: 0 contributions</title>
<rect x="556" y="218" width="12" height="12" fill="#eaf1ed" rx="3"/>
</g>
<g><title>2026-05-30: 1 contributions</title>
<rect x="556" y="233" width="12" height="12" fill="#a8dfbb" rx="3"/>
</g>
<g><title>2026-05-31: 1 contributions</title>
<rect x="571" y="143" width="12" height="12" fill="#a8dfbb" rx="3"/>
</g>
<text x="571" y="131" fill="#597368" font-size="10">Jun</text>
<g><title>2026-06-01: 0 contributions</title>
<rect x="571" y="158" width="12" height="12" fill="#eaf1ed" rx="3"/>
</g>
<g><title>2026-06-02: 2 contributions</title>
<rect x="571" y="173" width="12" height="12" fill="#a8dfbb" rx="3"/>
</g>
<g><title>2026-06-03: 0 contributions</title>
<rect x="571" y="188" width="12" height="12" fill="#eaf1ed" rx="3"/>
</g>
<g><title>2026-06-04: 0 contributions</title>
<rect x="571" y="203" width="12" height="12" fill="#eaf1ed" rx="3"/>
</g>
<g><title>2026-06-05: 0 contributions</title>
<rect x="571" y="218" width="12" height="12" fill="#eaf1ed" rx="3"/>
</g>
<g><title>2026-06-06: 0 contributions</title>
<rect x="571" y="233" width="12" height="12" fill="#eaf1ed" rx="3"/>
</g>
<g><title>2026-06-07: 0 contributions</title>
<rect x="586" y="143" width="12" height="12" fill="#eaf1ed" rx="3"/>
</g>
<g><title>2026-06-08: 0 contributions</title>
<rect x="586" y="158" width="12" height="12" fill="#eaf1ed" rx="3"/>
</g>
<g><title>2026-06-09: 0 contributions</title>
<rect x="586" y="173" width="12" height="12" fill="#eaf1ed" rx="3"/>
</g>
<g><title>2026-06-10: 0 contributions</title>
<rect x="586" y="188" width="12" height="12" fill="#eaf1ed" rx="3"/>
</g>
<g><title>2026-06-11: 0 contributions</title>
<rect x="586" y="203" width="12" height="12" fill="#eaf1ed" rx="3"/>
</g>
<g><title>2026-06-12: 0 contributions</title>
<rect x="586" y="218" width="12" height="12" fill="#eaf1ed" rx="3"/>
</g>
<g><title>2026-06-13: 0 contributions</title>
<rect x="586" y="233" width="12" height="12" fill="#eaf1ed" rx="3"/>
</g>
<g><title>2026-06-14: 0 contributions</title>
<rect x="601" y="143" width="12" height="12" fill="#eaf1ed" rx="3"/>
</g>
<g><title>2026-06-15: 0 contributions</title>
<rect x="601" y="158" width="12" height="12" fill="#eaf1ed" rx="3"/>
</g>
<g><title>2026-06-16: 0 contributions</title>
<rect x="601" y="173" width="12" height="12" fill="#eaf1ed" rx="3"/>
</g>
<g><title>2026-06-17: 0 contributions</title>
<rect x="601" y="188" width="12" height="12" fill="#eaf1ed" rx="3"/>
</g>
<g><title>2026-06-18: 0 contributions</title>
<rect x="601" y="203" width="12" height="12" fill="#eaf1ed" rx="3"/>
</g>
<g><title>2026-06-19: 0 contributions</title>
<rect x="601" y="218" width="12" height="12" fill="#eaf1ed" rx="3"/>
</g>
<g><title>2026-06-20: 0 contributions</title>
<rect x="601" y="233" width="12" height="12" fill="#eaf1ed" rx="3"/>
</g>
<g><title>2026-06-21: 0 contributions</title>
<rect x="616" y="143" width="12" height="12" fill="#eaf1ed" rx="3"/>
</g>
<g><title>2026-06-22: 0 contributions</title>
<rect x="616" y="158" width="12" height="12" fill="#eaf1ed" rx="3"/>
</g>
<g><title>2026-06-23: 0 contributions</title>
<rect x="616" y="173" width="12" height="12" fill="#eaf1ed" rx="3"/>
</g>
<g><title>2026-06-24: 0 contributions</title>
<rect x="616" y="188" width="12" height="12" fill="#eaf1ed" rx="3"/>
</g>
<g><title>2026-06-25: 0 contributions</title>
<rect x="616" y="203" width="12" height="12" fill="#eaf1ed" rx="3"/>
</g>
<g><title>2026-06-26: 0 contributions</title>
<rect x="616" y="218" width="12" height="12" fill="#eaf1ed" rx="3"/>
</g>
<g><title>2026-06-27: 0 contributions</title>
<rect x="616" y="233" width="12" height="12" fill="#eaf1ed" rx="3"/>
</g>
<g><title>2026-06-28: 0 contributions</title>
<rect x="631" y="143" width="12" height="12" fill="#eaf1ed" rx="3"/>
</g>
<g><title>2026-06-29: 0 contributions</title>
<rect x="631" y="158" width="12" height="12" fill="#eaf1ed" rx="3"/>
</g>
<g><title>2026-06-30: 1 contributions</title>
<rect x="631" y="173" width="12" height="12" fill="#a8dfbb" rx="3"/>
</g>
<text x="631" y="131" fill="#597368" font-size="10">Jul</text>
<g><title>2026-07-01: 3 contributions</title>
<rect x="631" y="188" width="12" height="12" fill="#a8dfbb" rx="3"/>
</g>
<g><title>2026-07-02: 0 contributions</title>
<rect x="631" y="203" width="12" height="12" fill="#eaf1ed" rx="3"/>
</g>
<g><title>2026-07-03: 0 contributions</title>
<rect x="631" y="218" width="12" height="12" fill="#eaf1ed" rx="3"/>
</g>
<g><title>2026-07-04: 0 contributions</title>
<rect x="631" y="233" width="12" height="12" fill="#eaf1ed" rx="3"/>
</g>
<g><title>2026-07-05: 3 contributions</title>
<rect x="646" y="143" width="12" height="12" fill="#a8dfbb" rx="3"/>
</g>
<g><title>2026-07-06: 3 contributions</title>
<rect x="646" y="158" width="12" height="12" fill="#a8dfbb" rx="3"/>
</g>
<g><title>2026-07-07: 0 contributions</title>
<rect x="646" y="173" width="12" height="12" fill="#eaf1ed" rx="3"/>
</g>
<g><title>2026-07-08: 1 contributions</title>
<rect x="646" y="188" width="12" height="12" fill="#a8dfbb" rx="3"/>
</g>
<g><title>2026-07-09: 0 contributions</title>
<rect x="646" y="203" width="12" height="12" fill="#eaf1ed" rx="3"/>
</g>
<g><title>2026-07-10: 0 contributions</title>
<rect x="646" y="218" width="12" height="12" fill="#eaf1ed" rx="3"/>
</g>
<g><title>2026-07-11: 4 contributions</title>
<rect x="646" y="233" width="12" height="12" fill="#60c88b" rx="3"/>
</g>
<g><title>2026-07-12: 1 contributions</title>
<rect x="661" y="143" width="12" height="12" fill="#a8dfbb" rx="3"/>
</g>
<g><title>2026-07-13: 0 contributions</title>
<rect x="661" y="158" width="12" height="12" fill="#eaf1ed" rx="3"/>
</g>
<g><title>2026-07-14: 0 contributions</title>
<rect x="661" y="173" width="12" height="12" fill="#eaf1ed" rx="3"/>
</g>
<g><title>2026-07-15: 0 contributions</title>
<rect x="661" y="188" width="12" height="12" fill="#eaf1ed" rx="3"/>
</g>
<g><title>2026-07-16: 2 contributions</title>
<rect x="661" y="203" width="12" height="12" fill="#a8dfbb" rx="3"/>
</g>
<g><title>2026-07-17: 0 contributions</title>
<rect x="661" y="218" width="12" height="12" fill="#eaf1ed" rx="3"/>
</g>
<g><title>2026-07-18: 0 contributions</title>
<rect x="661" y="233" width="12" height="12" fill="#eaf1ed" rx="3"/>
</g>
<g><title>2026-07-19: 0 contributions</title>
<rect x="676" y="143" width="12" height="12" fill="#eaf1ed" rx="3"/>
</g>
<g><title>2026-07-20: 6 contributions</title>
<rect x="676" y="158" width="12" height="12" fill="#60c88b" rx="3"/>
</g>
<g><title>2026-07-21: 0 contributions</title>
<rect x="676" y="173" width="12" height="12" fill="#eaf1ed" rx="3"/>
</g>
<g><title>2026-07-22: 2 contributions</title>
<rect x="676" y="188" width="12" height="12" fill="#a8dfbb" rx="3"/>
</g>
<g><title>2026-07-23: 0 contributions</title>
<rect x="676" y="203" width="12" height="12" fill="#eaf1ed" rx="3"/>
</g>
<g><title>2026-07-24: 1 contributions</title>
<rect x="676" y="218" width="12" height="12" fill="#a8dfbb" rx="3"/>
</g>
<g><title>2026-07-25: 6 contributions</title>
<rect x="676" y="233" width="12" height="12" fill="#60c88b" rx="3"/>
</g>
<g><title>2026-07-26: 0 contributions</title>
<rect x="691" y="143" width="12" height="12" fill="#eaf1ed" rx="3"/>
</g>
<g><title>2026-07-27: 11 contributions</title>
<rect x="691" y="158" width="12" height="12" fill="#157747" rx="3"/>
</g>
<g><title>2026-07-28: 0 contributions</title>
<rect x="691" y="173" width="12" height="12" fill="#eaf1ed" rx="3"/>
</g>
<g><title>2026-07-29: 1 contributions</title>
<rect x="691" y="188" width="12" height="12" fill="#a8dfbb" rx="3"/>
</g>
<g><title>2026-07-30: 0 contributions</title>
<rect x="691" y="203" width="12" height="12" fill="#eaf1ed" rx="3"/>
</g>
<g><title>2026-07-31: 2 contributions</title>
<rect x="691" y="218" width="12" height="12" fill="#a8dfbb" rx="3"/>
</g>
<text x="691" y="131" fill="#597368" font-size="10">Aug</text>
<g><title>2026-08-01: 0 contributions</title>
<rect x="691" y="233" width="12" height="12" fill="#eaf1ed" rx="3"/>
</g>
<g><title>2026-08-02: 0 contributions</title>
<rect x="706" y="143" width="12" height="12" fill="#eaf1ed" rx="3"/>
</g>
<g><title>2026-08-03: 0 contributions</title>
<rect x="706" y="158" width="12" height="12" fill="#eaf1ed" rx="3"/>
</g>
<g><title>2026-08-04: 0 contributions</title>
<rect x="706" y="173" width="12" height="12" fill="#eaf1ed" rx="3"/>
</g>
<g><title>2026-08-05: 0 contributions</title>
<rect x="706" y="188" width="12" height="12" fill="#eaf1ed" rx="3"/>
</g>
<g><title>2026-08-06: 0 contributions</title>
<rect x="706" y="203" width="12" height="12" fill="#eaf1ed" rx="3"/>
</g>
<g><title>2026-08-07: 0 contributions</title>
<rect x="706" y="218" width="12" height="12" fill="#eaf1ed" rx="3"/>
</g>
<g><title>2026-08-08: 0 contributions</title>
<rect x="706" y="233" width="12" height="12" fill="#eaf1ed" rx="3"/>
</g>
<g><title>2026-08-09: 0 contributions</title>
<rect x="721" y="143" width="12" height="12" fill="#eaf1ed" rx="3"/>
</g>
<g><title>2026-08-10: 0 contributions</title>
<rect x="721" y="158" width="12" height="12" fill="#eaf1ed" rx="3"/>
</g>
<g><title>2026-08-11: 38 contributions</title>
<rect x="721" y="173" width="12" height="12" fill="#157747" rx="3"/>
</g>
<g><title>2026-08-12: 20 contributions</title>
<rect x="721" y="188" width="12" height="12" fill="#157747" rx="3"/>
</g>
<g><title>2026-08-13: 3 contributions</title>
<rect x="721" y="203" width="12" height="12" fill="#a8dfbb" rx="3"/>
</g>
<g><title>2026-08-14: 11 contributions</title>
<rect x="721" y="218" width="12" height="12" fill="#157747" rx="3"/>
</g>
<g><title>2026-08-15: 1 contributions</title>
<rect x="721" y="233" width="12" height="12" fill="#a8dfbb" rx="3"/>
</g>
<g><title>2026-08-16: 0 contributions</title>
<rect x="736" y="143" width="12" height="12" fill="#eaf1ed" rx="3"/>
</g>
<g><title>2026-08-17: 0 contributions</title>
<rect x="736" y="158" width="12" height="12" fill="#eaf1ed" rx="3"/>
</g>
<g><title>2026-08-18: 9 contributions</title>
<rect x="736" y="173" width="12" height="12" fill="#2aa865" rx="3"/>
</g>
<g><title>2026-08-19: 0 contributions</title>
<rect x="736" y="188" width="12" height="12" fill="#eaf1ed" rx="3"/>
</g>
<g><title>2026-08-20: 0 contributions</title>
<rect x="736" y="203" width="12" height="12" fill="#eaf1ed" rx="3"/>
</g>
<g><title>2026-08-21: 9 contributions</title>
<rect x="736" y="218" width="12" height="12" fill="#2aa865" rx="3"/>
</g>
<g><title>2026-08-22: 9 contributions</title>
<rect x="736" y="233" width="12" height="12" fill="#2aa865" rx="3"/>
</g>
<g><title>2026-08-23: 0 contributions</title>
<rect x="751" y="143" width="12" height="12" fill="#eaf1ed" rx="3"/>
</g>
<g><title>2026-08-24: 3 contributions</title>
<rect x="751" y="158" width="12" height="12" fill="#a8dfbb" rx="3"/>
</g>
<g><title>2026-08-25: 0 contributions</title>
<rect x="751" y="173" width="12" height="12" fill="#eaf1ed" rx="3"/>
</g>
<g><title>2026-08-26: 1 contributions</title>
<rect x="751" y="188" width="12" height="12" fill="#a8dfbb" rx="3"/>
</g>
<g><title>2026-08-27: 0 contributions</title>
<rect x="751" y="203" width="12" height="12" fill="#eaf1ed" rx="3"/>
</g>
<g><title>2026-08-28: 1 contributions</title>
<rect x="751" y="218" width="12" height="12" fill="#a8dfbb" rx="3"/>
</g>
<g><title>2026-08-29: 5 contributions</title>
<rect x="751" y="233" width="12" height="12" fill="#60c88b" rx="3"/>
</g>
<g><title>2026-08-30: 1 contributions</title>
<rect x="766" y="143" width="12" height="12" fill="#a8dfbb" rx="3"/>
</g>
<g><title>2026-08-31: 0 contributions</title>
<rect x="766" y="158" width="12" height="12" fill="#eaf1ed" rx="3"/>
</g>
<text x="766" y="131" fill="#597368" font-size="10">Sep</text>
<g><title>2026-09-01: 0 contributions</title>
<rect x="766" y="173" width="12" height="12" fill="#eaf1ed" rx="3"/>
</g>
<g><title>2026-09-02: 2 contributions</title>
<rect x="766" y="188" width="12" height="12" fill="#a8dfbb" rx="3"/>
</g>
<g><title>2026-09-03: 0 contributions</title>
<rect x="766" y="203" width="12" height="12" fill="#eaf1ed" rx="3"/>
</g>
<g><title>2026-09-04: 0 contributions</title>
<rect x="766" y="218" width="12" height="12" fill="#eaf1ed" rx="3"/>
</g>
<g><title>2026-09-05: 0 contributions</title>
<rect x="766" y="233" width="12" height="12" fill="#eaf1ed" rx="3"/>
</g>
<g><title>2026-09-06: 0 contributions</title>
<rect x="781" y="143" width="12" height="12" fill="#eaf1ed" rx="3"/>
</g>
<g><title>2026-09-07: 0 contributions</title>
<rect x="781" y="158" width="12" height="12" fill="#eaf1ed" rx="3"/>
</g>
<g><title>2026-09-08: 0 contributions</title>
<rect x="781" y="173" width="12" height="12" fill="#eaf1ed" rx="3"/>
</g>
<g><title>2026-09-09: 0 contributions</title>
<rect x="781" y="188" width="12" height="12" fill="#eaf1ed" rx="3"/>
</g>
<g><title>2026-09-10: 0 contributions</title>
<rect x="781" y="203" width="12" height="12" fill="#eaf1ed" rx="3"/>
</g>
<g><title>2026-09-11: 0 contributions</title>
<rect x="781" y="218" width="12" height="12" fill="#eaf1ed" rx="3"/>
</g>
<g><title>2026-09-12: 0 contributions</title>
<rect x="781" y="233" width="12" height="12" fill="#eaf1ed" rx="3"/>
</g>
<g><title>2026-09-13: 0 contributions</title>
<rect x="796" y="143" width="12" height="12" fill="#eaf1ed" rx="3"/>
</g>
<g><title>2026-09-14: 1 contributions</title>
<rect x="796" y="158" width="12" height="12" fill="#a8dfbb" rx="3"/>
</g>
<g><title>2026-09-15: 0 contributions</title>
<rect x="796" y="173" width="12" height="12" fill="#eaf1ed" rx="3"/>
</g>
<g><title>2026-09-16: 5 contributions</title>
<rect x="796" y="188" width="12" height="12" fill="#60c88b" rx="3"/>
</g>
<g><title>2026-09-17: 6 contributions</title>
<rect x="796" y="203" width="12" height="12" fill="#60c88b" rx="3"/>
</g>
<g><title>2026-09-18: 3 contributions</title>
<rect x="796" y="218" width="12" height="12" fill="#a8dfbb" rx="3"/>
</g>
<g><title>2026-09-19: 2 contributions</title>
<rect x="796" y="233" width="12" height="12" fill="#a8dfbb" rx="3"/>
</g>
<g><title>2026-09-20: 2 contributions</title>
<rect x="811" y="143" width="12" height="12" fill="#a8dfbb" rx="3"/>
</g>
<g><title>2026-09-21: 3 contributions</title>
<rect x="811" y="158" width="12" height="12" fill="#a8dfbb" rx="3"/>
</g>
<g><title>2026-09-22: 2 contributions</title>
<rect x="811" y="173" width="12" height="12" fill="#a8dfbb" rx="3"/>
</g>
<g><title>2026-09-23: 0 contributions</title>
<rect x="811" y="188" width="12" height="12" fill="#eaf1ed" rx="3"/>
</g>
<g><title>2026-09-24: 0 contributions</title>
<rect x="811" y="203" width="12" height="12" fill="#eaf1ed" rx="3"/>
</g>
<g><title>2026-09-25: 0 contributions</title>
<rect x="811" y="218" width="12" height="12" fill="#eaf1ed" rx="3"/>
</g>
<g><title>2026-09-26: 7 contributions</title>
<rect x="811" y="233" width="12" height="12" fill="#2aa865" rx="3"/>
</g>
<g><title>2026-09-27: 1 contributions</title>
<rect x="826" y="143" width="12" height="12" fill="#a8dfbb" rx="3"/>
</g>
<g><title>2026-09-28: 8 contributions</title>
<rect x="826" y="158" width="12" height="12" fill="#2aa865" rx="3"/>
</g>
<g><title>2026-09-29: 9 contributions</title>
<rect x="826" y="173" width="12" height="12" fill="#2aa865" rx="3"/>
</g>
<g><title>2026-09-30: 2 contributions</title>
<rect x="826" y="188" width="12" height="12" fill="#a8dfbb" rx="3"/>
</g>
<g><title>2026-10-01: 0 contributions</title>
<rect x="826" y="203" width="12" height="12" fill="#eaf1ed" rx="3"/>
</g>
<g><title>2026-10-02: 7 contributions</title>
<rect x="826" y="218" width="12" height="12" fill="#2aa865" rx="3"/>
</g>
<g><title>2026-10-03: 4 contributions</title>
<rect x="826" y="233" width="12" height="12" fill="#60c88b" rx="3"/>
</g>
<g><title>2026-10-04: 2 contributions</title>
<rect x="841" y="143" width="12" height="12" fill="#a8dfbb" rx="3"/>
</g>
<g><title>2026-10-05: 0 contributions</title>
<rect x="841" y="158" width="12" height="12" fill="#eaf1ed" rx="3"/>
</g>
<g><title>2026-10-06: 2 contributions</title>
<rect x="841" y="173" width="12" height="12" fill="#a8dfbb" rx="3"/>
</g>
<text x="28" y="168" fill="#597368" font-size="10">Mon</text>
<text x="28" y="198" fill="#597368" font-size="10">Wed</text>
<text x="28" y="228" fill="#597368" font-size="10">Fri</text>
<text x="61" y="265" fill="#597368" font-size="10">05 Oct 2025 — 2026-10-06</text>
<text x="733" y="265" fill="#597368" font-size="10">Less</text>
<rect x="764" y="255" width="11" height="11" fill="#eaf1ed" rx="3"/>
<rect x="779" y="255" width="11" height="11" fill="#a8dfbb" rx="3"/>
<rect x="794" y="255" width="11" height="11" fill="#60c88b" rx="3"/>
<rect x="809" y="255" width="11" height="11" fill="#2aa865" rx="3"/>
<rect x="824" y="255" width="11" height="11" fill="#157747" rx="3"/>
<text x="844" y="265" fill="#597368" font-size="10">More</text>
<path d="M28 281H868" stroke="#dce8e1"/>
<text x="28" y="315" fill="#18352b" font-size="22" font-weight="650">79</text>
<text x="66" y="314" fill="#597368" font-size="12">active days</text>
<text x="242" y="315" fill="#18352b" font-size="22" font-weight="650">7</text>
<text x="266" y="314" fill="#597368" font-size="12">day best streak</text>
<text x="465" y="315" fill="#18352b" font-size="22" font-weight="650">66</text>
<text x="503" y="314" fill="#597368" font-size="12">in the last 30 days</text>
<text x="868" y="315" fill="#597368" font-size="10" text-anchor="end">Updated 2026.10.07 · JST</text>
</g></svg>
